#!OML:ASF H:\ManfredETheater\Project 1\Capture day 1\Session 1\subject.ASF
:FULLY-SPECIFIED
:DEGREES
95
root -0.443504 19.7705 -10.6182 8.92839 -1.11205 3.07595
lowerback 14.5966 -3.00707 -4.1691
upperback 0.542294 -4.54094 1.72302
thorax -7.13364 -2.03991 5.11134
lowerneck -19.4688 2.5128 1.4412
upperneck 15.1665 3.65088 -3.25601
head 7.97941 1.48095 -0.868431
rclavicle 2.48481e-015 1.39149e-014
rhumerus -71.3474 4.70917 -81.7066
rradius 99.1057
rwrist -1.15288
rhand -27.1211 10.4567
rfingers 7.12502
rthumb -0.537046 -19.5224
lclavicle 2.48481e-015 1.39149e-014
lhumerus -47.6558 -28.5095 106.509
lradius 123.208
lwrist 10.7122
lhand -21.405 -19.279
lfingers 7.12502
lthumb 4.98333 10.6424
rfemur -66.7527 -4.73203 17.6935
rtibia 67.9584
rfoot -14.809 -3.22437
rtoes -37.2613
lfemur -9.71527 -3.3393 -28.6306
ltibia 43.3948
lfoot 12.2955 -5.64898
ltoes -8.63763
96
root -0.472057 19.9105 -10.179 8.72025 -0.719344 3.33279
lowerback 14.6957 -3.0008 -4.35599
upperback 0.689271 -4.56499 1.71145
thorax -7.01439 -2.05288 5.20872
lowerneck -19.5405 2.42206 1.41068
upperneck 15.0298 3.52219 -3.21248
head 7.94125 1.42355 -0.864731
rclavicle -1.92821e-014 -1.43125e-014
rhumerus -69.8588 3.9445 -81.7516
rradius 98.3822
rwrist -1.43304
rhand -27.2744 9.89465
rfingers 7.12502
rthumb -0.685097 -20.084
lclavicle -1.92821e-014 -1.43125e-014
lhumerus -48.4782 -27.9009 106.543
lradius 121.432
lwrist 11.8475
lhand -21.3544 -19.049
lfingers 7.12502
lthumb 5.03213 10.8713
rfemur -65.2075 -5.04491 17.6709
rtibia 65.4011
rfoot -13.3805 -2.79229
rtoes -36.7064
lfemur -11.0767 -3.08543 -28.7609
ltibia 47.3486
lfoot 11.3835 -5.80687
ltoes -8.09367
97
root -0.501642 20.0386 -9.74119 8.41362 -0.221916 3.45843
lowerback 14.8753 -2.98599 -4.39669
upperback 0.862044 -4.55365 1.72987
thorax -6.92491 -2.0522 5.25421
lowerneck -19.5687 2.28605 1.33735
upperneck 14.8549 3.34525 -3.17958
head 7.88139 1.34052 -0.864043
rclavicle 5.26779e-014 -8.74653e-015
rhumerus -68.3015 3.13426 -81.8079
rradius 97.6088
rwrist -1.80218
rhand -27.426 9.35528
rfingers 7.12502
rthumb -0.831508 -20.6228
lclavicle 5.26779e-014 -8.74653e-015
lhumerus -49.1807 -27.2333 106.494
lradius 119.597
lwrist 12.947
lhand -21.2424 -18.8821
lfingers 7.12502
lthumb 5.14027 11.0356
rfemur -63.4477 -5.39608 17.7571
rtibia 63.3411
rfoot -11.9472 -2.42682
rtoes -35.8628
lfemur -12.5905 -2.85741 -28.7248
ltibia 51.653
lfoot 10.3109 -5.80254
ltoes -7.89851
98
root -0.532454 20.158 -9.30415 7.99883 0.33315 3.37459
lowerback 15.1466 -2.95197 -4.23686
upperback 1.05399 -4.48206 1.80157
thorax -6.88355 -2.02582 5.23844
lowerneck -19.5515 2.10928 1.21869
upperneck 14.6588 3.12748 -3.15744
head 7.80555 1.23503 -0.864854
rclavicle -4.08502e-014 1.35174e-014
rhumerus -66.7158 2.30266 -81.8672
rradius 96.8122
rwrist -2.22478
rhand -27.548 8.84301
rfingers 7.12502
rthumb -0.94935 -21.1346
lclavicle -4.08502e-014 1.35174e-014
lhumerus -49.7798 -26.5159 106.376
lradius 117.707
lwrist 13.7186
lhand -21.1427 -18.7754
lfingers 7.12502
lthumb 5.23653 11.1399
rfemur -61.4641 -5.72606 18.0413
rtibia 61.763
rfoot -10.603 -2.10815
rtoes -34.4909
lfemur -14.2418 -2.59557 -28.4346
ltibia 56.2279
lfoot 9.22236 -5.67755
ltoes -7.84638
99
root -0.565188 20.27 -8.86706 7.4741 0.917328 3.03355
lowerback 15.4983 -2.89557 -3.8568
upperback 1.26343 -4.33924 1.94539
thorax -6.88612 -1.96853 5.16671
lowerneck -19.4984 1.89757 1.05367
upperneck 14.4605 2.876 -3.1388
head 7.7221 1.11084 -0.863377
rclavicle 6.17226e-014 -3.29983e-014
rhumerus -65.1263 1.47513 -81.9249
rradius 96.0221
rwrist -2.65426
rhand -27.6108 8.36135
rfingers 7.12502
rthumb -1.01 -21.616
lclavicle 6.17226e-014 -3.29983e-014
lhumerus -50.2944 -25.755 106.201
lradius 115.763
lwrist 13.9669
lhand -21.1372 -18.7525
lfingers 7.12502
lthumb 5.24191 11.1626
rfemur -59.2449 -6.00548 18.583
rtibia 60.6059
rfoot -9.57451 -1.87204
rtoes -32.6347
lfemur -15.9952 -2.27512 -27.8313
ltibia 60.9477
lfoot 8.13862 -5.49562
ltoes -7.68514
100
root -0.600232 20.3729 -8.43021 6.86356 1.46442 2.42287
lowerback 15.9125 -2.80228 -3.27225
upperback 1.47485 -4.10519 2.16677
thorax -6.9379 -1.86947 5.04761
lowerneck -19.4144 1.65366 0.846122
upperneck 14.2777 2.59232 -3.11623
head 7.63794 0.969416 -0.857343
rclavicle 3.39922e-014 -2.54444e-014
rhumerus -63.556 0.675086 -81.9804
rradius 95.259
rwrist -3.04605
rhand -27.6152 7.89876
rfingers 7.12502
rthumb -1.01428 -22.0786
lclavicle 3.39922e-014 -2.54444e-014
lhumerus -50.7496 -24.9601 105.977
lradius 113.782
lwrist 13.6499
lhand -21.2786 -18.781
lfingers 7.12502
lthumb 5.10539 11.1375
rfemur -56.8043 -6.19427 19.4084
rtibia 59.6992
rfoot -8.88297 -1.7335
rtoes -30.278
lfemur -17.835 -1.83473 -26.8993
ltibia 65.6319
lfoot 7.00474 -5.30168
ltoes -7.44134
101
root -0.638371 20.465 -7.9935 6.17887 1.95254 1.56907
lowerback 16.3886 -2.6732 -2.52476
upperback 1.67527 -3.78567 2.45904
thorax -7.04654 -1.73014 4.89702
lowerneck -19.3046 1.38558 0.605489
upperneck 14.1282 2.28283 -3.07855
head 7.56018 0.815183 -0.84363
rclavicle 1.43125e-014 -1.03368e-014
rhumerus -62.0324 -0.0667808 -82.048
rradius 94.5527
rwrist -3.37035
rhand -27.5735 7.45124
rfingers 7.12502
rthumb -0.974033 -22.5263
lclavicle 1.43125e-014 -1.03368e-014
lhumerus -51.1794 -24.133 105.707
lradius 111.792
lwrist 12.8886
lhand -21.5711 -18.8173
lfingers 7.12502
lthumb 4.82291 11.1078
rfemur -54.2056 -6.29066 20.495
rtibia 59.0654
rfoot -8.65897 -1.75064
rtoes -27.6457
lfemur -19.7811 -1.26467 -25.6549
ltibia 70.2954
lfoot 5.73366 -5.09653
ltoes -7.12778
102
root -0.678396 20.5904 -7.55613 5.45401 2.35789 0.523994
lowerback 16.9066 -2.50742 -1.67436
upperback 1.85113 -3.38717 2.80868
thorax -7.20877 -1.5528 4.73266
lowerneck -19.1711 1.1023 0.351394
upperneck 14.0142 1.95457 -3.02812
head 7.4906 0.652259 -0.825281
rclavicle -4.41302e-014 2.10712e-014
rhumerus -60.5653 -0.722497 -82.1413
rradius 93.9245
rwrist -3.61641
rhand -27.518 7.01078
rfingers 7.12502
rthumb -0.920388 -22.967
lclavicle -4.41302e-014 2.10712e-014
lhumerus -51.6074 -23.2816 105.389
lradius 109.837
lwrist 11.9161
lhand -21.9772 -18.8274
lfingers 7.12502
lthumb 4.43081 11.1063
rfemur -51.2858 -6.298 21.7727
rtibia 58.4691
rfoot -9.00447 -1.96685
rtoes -25.0406
lfemur -21.719 -0.555055 -24.1406
ltibia 74.6643
lfoot 4.41697 -4.89448
ltoes -6.74578
